PathFileType        4      (X/Y/Z)      C:\Users\pc\Desktop\IMUTRC\Sujet_03\Sujet_03_velo_80.trc         
DataRate	CameraRate	NumFrames	NumMarkers	Units	OrigDataRate	OrigDataStartFrame	OrigNumFrames
60.0	60.0	4	64	mm	60.0	820	936
Frame#	Time	pHipOrigin			pRightASI			pLeftASI			pRightCSI			pLeftCSI			pRightIschialTub			pLeftIschialTub			pSacrum			pL5SpinalProcess			pL3SpinalProcess			pT12SpinalProcess			pIJ			pT4SpinalProcess			pT8SpinalProcess			pPX			pC7SpinalProcess			pTopOfHead			pRightAuricularis			pLeftAuricularis			pBackOfHead			pRightAcromion			pLeftAcromion			pRightArmLatEpicondyle			pRightArmMedEpicondyle			pLeftArmLatEpicondyle			pLeftArmMedEpicondyle			pRightUlnarStyloid			pRightRadialStyloid			pRightOlecranon			pLeftUlnarStyloid			pLeftRadialStyloid			pLeftOlecranon			pRightTopOfHand			pRightPinky			pRightBallHand			pLeftTopOfHand			pLeftPinky			pLeftBallHand			pRightGreaterTrochanter			pRightKneeLatEpicondyle			pRightKneeMedEpicondyle			pRightPatella			pLeftGreaterTrochanter			pLeftKneeLatEpicondyle			pLeftKneeMedEpicondyle			pLeftPatella			pRightTibialTub			pRightLatMalleolus			pRightMedMalleolus			pLeftTibialTub			pLeftLatMalleolus			pLeftMedMalleolus			pRightHeelFoot			pRightFirstMetatarsal			pRightFifthMetatarsal			pRightPivotFoot			pRightHeelCenter			pRightToe			pLeftHeelFoot			pLeftFirstMetatarsal			pLeftFifthMetatarsal			pLeftPivotFoot			pLeftHeelCenter			pLeftToe			
		X1	Y1	Z1	X2	Y2	Z2	X3	Y3	Z3	X4	Y4	Z4	X5	Y5	Z5	X6	Y6	Z6	X7	Y7	Z7	X8	Y8	Z8	X9	Y9	Z9	X10	Y10	Z10	X11	Y11	Z11	X12	Y12	Z12	X13	Y13	Z13	X14	Y14	Z14	X15	Y15	Z15	X16	Y16	Z16	X17	Y17	Z17	X18	Y18	Z18	X19	Y19	Z19	X20	Y20	Z20	X21	Y21	Z21	X22	Y22	Z22	X23	Y23	Z23	X24	Y24	Z24	X25	Y25	Z25	X26	Y26	Z26	X27	Y27	Z27	X28	Y28	Z28	X29	Y29	Z29	X30	Y30	Z30	X31	Y31	Z31	X32	Y32	Z32	X33	Y33	Z33	X34	Y34	Z34	X35	Y35	Z35	X36	Y36	Z36	X37	Y37	Z37	X38	Y38	Z38	X39	Y39	Z39	X40	Y40	Z40	X41	Y41	Z41	X42	Y42	Z42	X43	Y43	Z43	X44	Y44	Z44	X45	Y45	Z45	X46	Y46	Z46	X47	Y47	Z47	X48	Y48	Z48	X49	Y49	Z49	X50	Y50	Z50	X51	Y51	Z51	X52	Y52	Z52	X53	Y53	Z53	X54	Y54	Z54	X55	Y55	Z55	X56	Y56	Z56	X57	Y57	Z57	X58	Y58	Z58	X59	Y59	Z59	X60	Y60	Z60	X61	Y61	Z61	X62	Y62	Z62	X63	Y63	Z63	X64	Y64	Z64	
820	13.65	0.0	1249.98473	7.653948992887842E-14	93.97556000000002	1340.43693	128.86262000000008	88.25731999999999	1319.8166	-144.74662999999993	66.71283	1415.64048	99.75157000000009	61.97650999999999	1398.65904	-126.14789999999992	-68.15683	1212.78727	61.052350000000075	-70.52499	1204.29655	-51.86849999999992	-60.35923	1287.93307	-1.5595199999999174	1.6172799999999996	1375.95935	-8.952799999999916	70.69827	1473.92035	-15.884009999999913	135.04294	1562.92855	-21.486729999999913	404.78226	1597.23801	-30.670569999999927	283.25517	1702.36126	-29.919689999999914	207.76281	1644.08139	-26.223049999999915	305.0307	1513.37045	-25.529929999999926	329.69423	1736.26639	-30.497289999999914	578.92874	1834.2274	-75.60786999999992	514.23751	1775.08113	13.400330000000077	479.0039	1779.29761	-126.55221999999992	466.23893	1824.23491	-47.47873999999992	335.00815	1724.31007	180.44232000000008	320.97247	1709.35022	-245.3645899999999	426.73107	1438.7445	170.27656000000005	409.98067	1433.43057	112.28549000000005	410.78931	1426.55713	-242.76538999999994	397.96658	1420.26129	-183.90791999999993	518.62728	1199.38695	123.95302000000004	567.4345	1222.08664	123.89526000000004	391.55522	1430.83137	143.93799000000007	504.82263	1186.50646	-229.76937999999996	553.57209	1209.32167	-231.73322999999993	377.51953	1418.12417	-214.40521999999996	724.13745	1119.67811	181.36648	628.42909	1117.02115	152.31319000000002	573.2105	1170.62245	122.04694000000005	680.70191	1090.7981	-330.90719	591.98251	1097.96034	-285.16125	552.35913	1154.10309	-239.12650999999997	32.692170000000004	1242.59145	164.6738300000001	406.05298	1070.35105	127.76518000000004	406.22627	1072.95025	47.825300000000034	422.11027	1113.55555	86.52452000000004	-0.8664000000000102	1216.42615	-167.6195999999999	191.41673	851.55607	-185.35191999999995	208.51369	849.76551	-107.26036999999995	237.85579	874.14024	-151.33126999999996	436.43476	1021.71711	75.66563000000002	184.0812	683.41663	90.97204000000004	177.84312	691.67632	24.894570000000034	236.29627	798.07028	-152.02438999999998	-3.465600000000007	452.49205	-113.55620999999996	14.382249999999997	453.70501	-49.15377999999997	121.41158	617.80124	25.93425000000003	289.31997	579.67962	9.934720000000018	272.5118	558.42393	86.98660000000001	303.12462	562.64042	50.424500000000016	159.82199	607.00012	31.363690000000023	382.37137	538.49673	61.05235000000001	-58.51091	393.11474	-39.62337999999997	101.65765	328.77007	-49.673619999999985	69.88962999999998	311.49982	-122.91333999999999	106.16293	310.34462	-91.54963999999998	-23.566090000000003	376.47985	-50.88657999999998	177.95864	274.18684	-114.19157	
821	13.667	0.0	1249.98473	7.653948992887842E-14	93.86004000000001	1340.03261	129.2669400000001	88.37283999999998	1320.3942	-144.45782999999992	66.53955	1415.29392	100.44469000000008	62.03426999999999	1399.12112	-125.51253999999992	-68.21459	1212.55623	60.87907000000008	-70.46723	1204.46983	-52.15729999999992	-60.35923	1287.87531	-1.5017599999999174	1.5595199999999996	1375.95935	-8.490719999999916	70.64051	1473.97811	-15.190889999999913	134.98518	1562.98631	-20.62032999999991	404.66674	1597.29577	-29.919689999999925	283.19741	1702.47678	-28.995529999999913	207.70505	1644.19691	-25.298889999999915	304.91518	1513.42821	-24.779049999999927	329.63647	1736.38191	-29.573129999999914	578.81322	1834.34292	-74.97250999999991	514.23751	1775.25441	14.151210000000077	478.83062	1779.35537	-125.80133999999991	466.12341	1824.35043	-46.727859999999914	334.89263	1724.48335	181.36648000000008	321.03023	1709.06142	-244.4981899999999	426.90435	1439.0333	170.56536000000006	409.92291	1433.66161	112.63205000000006	411.19363	1426.67265	-242.53434999999993	398.48642	1420.26129	-183.61911999999995	518.56952	1199.61799	124.47286000000004	567.4345	1222.25992	124.41510000000004	391.61298	1431.12017	144.28455000000005	505.22695	1186.56422	-229.48057999999995	553.97641	1209.32167	-231.38666999999995	377.92385	1418.18193	-214.11641999999995	724.13745	1119.85139	181.88632	628.42909	1117.19443	152.83303000000004	573.15274	1170.85349	122.56678000000004	681.04847	1090.68258	-330.44511	592.32907	1097.96034	-284.81469	552.70569	1154.10309	-238.77994999999999	32.230090000000004	1241.20521	164.6160700000001	402.52962	1062.6112	127.12982000000004	402.81842	1065.73025	47.18994000000004	419.39555	1105.75794	86.17796000000004	-0.28880000000001027	1217.63911	-167.96615999999992	199.04105	856.86999	-189.91496999999995	216.25354	854.50183	-111.82340999999995	245.07579	879.974	-155.66326999999998	435.68388	1015.3635	75.89667000000003	198.63673	666.31966	94.32212000000003	192.39865	673.42415	28.129130000000032	241.26363	801.82469	-155.83654999999996	-13.053770000000007	468.14501	-107.31812999999997	5.775999999999997	469.82005	-43.204499999999975	138.21974	597.70075	30.728330000000028	307.22558	565.7017	13.169290000000016	292.09245	544.67705	90.56772000000001	322.12767	549.64441	53.601300000000016	177.09224	588.40139	35.81122000000002	402.35634	528.562	63.478270000000016	-69.31203	411.82899	-32.576649999999965	88.48836	341.8816	-42.68465999999999	55.796189999999996	324.90015	-115.52004999999998	92.12724	322.87855	-84.38739999999999	-35.06034	393.86562	-43.78209999999998	162.47895	284.00605	-106.91381	
822	13.683	0.0	1249.98473	7.653948992887842E-14	93.51348000000002	1339.39725	129.90230000000008	88.54611999999999	1321.20284	-143.93798999999993	66.25075	1414.83184	101.36885000000008	62.149789999999996	1399.81424	-124.64613999999992	-68.27235	1212.20967	60.53251000000008	-70.35171	1204.64311	-52.503859999999925	-60.41699	1287.87531	-1.4439999999999173	1.5017599999999995	1376.01711	-7.855359999999916	70.52499	1474.09363	-14.208969999999914	134.8119	1563.15959	-19.40736999999991	404.49346	1597.58457	-28.880009999999924	282.96637	1702.70782	-27.782569999999915	207.47401	1644.37019	-23.970409999999916	304.79966	1513.65925	-23.739369999999926	329.40543	1736.61295	-28.360169999999915	578.52442	1834.57396	-74.10610999999992	514.06423	1775.60097	15.133130000000076	478.48406	1779.58641	-124.70389999999992	465.83461	1824.58147	-45.74593999999991	334.54607	1724.77215	182.6372000000001	320.97247	1708.77262	-243.3429899999999	427.07763	1439.43762	171.25848000000005	409.92291	1434.12369	113.32517000000006	411.42467	1426.84593	-242.07226999999995	398.89074	1420.26129	-183.15703999999994	518.68504	1199.96455	125.33926000000004	567.49226	1222.66424	125.33926000000004	391.7285	1431.52449	144.97767000000005	505.63127	1186.67974	-228.78745999999995	554.38073	1209.49495	-230.63578999999993	378.27041	1418.29745	-213.71209999999994	724.19521	1120.19795	182.75272	628.48685	1117.59875	153.75719000000004	573.2105	1171.20005	123.43318000000004	681.51055	1090.62482	-329.46319	592.73339	1098.0181	-283.89053	553.11001	1154.27637	-237.97130999999996	31.36369000000001	1239.1836	164.6160700000001	396.98466	1051.348	126.78326000000004	397.73554	1055.27568	46.90114000000004	415.17907	1094.49474	86.35124000000005	0.9241599999999897	1219.37192	-168.3704799999999	209.0913	863.85895	-194.76680999999994	225.8417	860.73991	-116.61748999999996	254.3174	887.54056	-159.87974999999997	433.2002	1005.60206	76.76307000000003	211.51722	646.73901	98.13428000000003	205.56793	652.6883	31.825770000000023	248.25259	807.25413	-159.76422999999997	-20.389290000000006	486.5127	-101.88868999999997	-0.6931200000000023	488.5343	-38.006099999999975	153.35287	575.34762	36.04226000000003	323.10959	548.89353	16.23057000000001	309.82478	528.21544	94.09108000000002	339.10911	533.81816	56.604830000000014	192.62969	567.4345	40.60530000000002	420.14643	515.56599	65.55763	-77.91828	433.25796	-26.223049999999972	77.28292	357.7656	-36.273299999999985	43.608819999999994	341.07296	-108.76212999999998	79.99764	338.12719	-77.80275999999999	-44.3597	413.96611	-37.42849999999997	148.84759	296.53998	-100.27141	
823	13.7	0.0	1249.98473	7.653948992887842E-14	93.39796000000001	1338.70413	130.47990000000007	88.66163999999999	1322.06924	-143.4181499999999	66.07747	1414.312	102.35077000000008	62.149789999999996	1400.50736	-123.77973999999992	-68.33011	1211.80535	60.24371000000008	-70.23619	1204.93191	-52.79265999999992	-60.41699	1287.81755	-1.2707199999999175	1.4439999999999995	1376.07487	-7.162239999999915	70.40947	1474.20915	-13.227049999999913	134.63862	1563.27511	-18.25216999999991	404.32018	1597.87337	-28.071369999999927	282.73533	1702.93886	-26.627369999999914	207.30073	1644.54347	-22.757449999999913	304.62638	1513.89029	-22.815209999999926	329.17439	1736.84399	-27.262729999999916	578.17786	1834.92052	-73.18194999999992	513.77543	1775.94753	16.057290000000076	478.19526	1779.87521	-123.77973999999992	465.54581	1824.87027	-44.82177999999991	334.19951	1725.00319	183.79240000000007	320.91471	1708.59934	-242.30330999999993	427.19315	1439.72642	171.83608000000007	409.86515	1434.41249	113.96053000000006	411.59795	1427.07697	-241.55242999999993	399.17954	1420.37681	-182.63719999999995	518.7428	1200.31111	126.26342000000004	567.60778	1222.95304	126.26342000000004	391.7285	1431.81329	145.55527000000006	505.97783	1186.85302	-227.97881999999996	554.66953	1209.66823	-229.82713999999996	378.44369	1418.47073	-213.19225999999995	724.25297	1120.54451	183.7924	628.54461	1117.94531	154.73911000000004	573.32602	1171.54661	124.41510000000004	681.79935	1090.62482	-328.42351	593.07995	1098.07586	-282.90861	553.39881	1154.39189	-237.10490999999996	30.324010000000012	1236.81544	164.5583100000001	389.64914	1037.25455	126.20566000000002	390.91986	1042.04863	46.381300000000046	409.46083	1080.22801	86.40900000000005	2.1948799999999897	1221.33576	-168.7747999999999	220.18122	872.1764	-199.84968999999995	236.52731	868.07544	-121.64261999999995	264.54092	896.43561	-164.21174999999997	428.52164	993.29917	77.34068000000003	221.7985	625.82989	101.13781000000003	216.3113	630.68173	34.65602000000002	256.339	814.18533	-163.74966999999998	-25.241130000000005	506.38215	-97.72995999999998	-4.967360000000002	508.80807	-34.07841999999997	165.65576	551.95481	40.20098000000003	335.81679	530.2948	18.36769000000001	324.20703	509.90551	96.57476000000001	352.79824	516.02808	58.68419000000001	205.16361	545.25465	44.35970000000002	434.47092	500.25959	66.71283	-84.27188	456.01541	-21.313449999999968	68.33011	375.20913	-30.901609999999984	33.78961999999999	358.80528	-103.10164999999998	70.23619	354.99312	-72.14226999999997	-51.40642	435.5106	-32.34560999999997	137.58438	310.8067	-94.32212	
